<?xml version="1.0" encoding="utf-8"?>
<!-- Generator: Adobe Illustrator 25.0.0, SVG Export Plug-In . SVG Version: 6.00 Build 0)  -->
<svg version="1.1" id="Layer_1" xmlns="http://www.w3.org/2000/svg" xmlns:xlink="http://www.w3.org/1999/xlink" x="0px" y="0px"
	 viewBox="0 0 1920 1080" style="enable-background:new 0 0 1920 1080;" xml:space="preserve">
<style type="text/css">
	.st0{fill:#FFFFFF;stroke:url(#SVGID_1_);stroke-width:20;stroke-miterlimit:10;}
	.st1{fill:url(#SVGID_2_);}
	.st2{fill:url(#SVGID_3_);}
	.st3{fill:url(#SVGID_4_);}
	.st4{fill:url(#SVGID_5_);}
	.st5{fill:url(#SVGID_6_);}
	.st6{fill:url(#SVGID_7_);}
	.st7{fill:url(#SVGID_8_);}
</style>
<g>
	<linearGradient id="SVGID_1_" gradientUnits="userSpaceOnUse" x1="718.3632" y1="781.6366" x2="1201.6366" y2="298.3632">
		<stop  offset="0" style="stop-color:#00FFFF"/>
		<stop  offset="1" style="stop-color:#FF00FF"/>
	</linearGradient>
	<path class="st0" d="M659.4,399.8L659.4,399.8c-33,70.7-40,150.7-19.8,226l0,0c20.2,75.3,66.3,141.1,130.2,185.9l0,0
		c63.9,44.7,141.5,65.5,219.2,58.7h0c77.7-6.8,150.5-40.8,205.7-95.9l0,0c55.1-55.1,89.1-128,95.9-205.7l0,0
		c6.8-77.7-14-155.3-58.7-219.2l0,0c-44.7-63.9-110.5-110-185.9-130.2l0,0c-75.3-20.2-155.4-13.2-226,19.8l0,0
		C749.1,272.3,692.3,329.1,659.4,399.8z"/>
	<g>
		<linearGradient id="SVGID_2_" gradientUnits="userSpaceOnUse" x1="678.0896" y1="610.5829" x2="780.6611" y2="508.0114">
			<stop  offset="0" style="stop-color:#00FFFF"/>
			<stop  offset="1" style="stop-color:#FF00FF"/>
		</linearGradient>
		<path class="st1" d="M780.1,605.3h-28.7l-5.9-29.5l2.3,2H704l2.3-2l-6.6,29.5h-26.9l25.4-101.5c1.6-6.1,3.3-10.9,5.3-14.3
			c2-3.4,4.7-5.9,8.2-7.3c3.5-1.4,8.3-2,14.2-1.8l28.1,1L780.1,605.3z M721.8,508.9l-10.5,46.1l-1.6-2h33.4l-1.6,2l-9.6-48.8h-7.4
			c-0.9,0-1.5,0.2-1.9,0.6C722.3,507.1,722,507.8,721.8,508.9z"/>
		<linearGradient id="SVGID_3_" gradientUnits="userSpaceOnUse" x1="786.238" y1="604.5468" x2="811.1248" y2="579.6601">
			<stop  offset="0" style="stop-color:#00FFFF"/>
			<stop  offset="1" style="stop-color:#FF00FF"/>
		</linearGradient>
		<path class="st2" d="M810.4,605.3H787v-26.4h23.4V605.3z"/>
		<linearGradient id="SVGID_4_" gradientUnits="userSpaceOnUse" x1="807.1217" y1="581.5145" x2="883.538" y2="505.0982">
			<stop  offset="0" style="stop-color:#00FFFF"/>
			<stop  offset="1" style="stop-color:#FF00FF"/>
		</linearGradient>
		<path class="st3" d="M859.8,605.3h-28.9V481.3h28.9V605.3z"/>
		<linearGradient id="SVGID_5_" gradientUnits="userSpaceOnUse" x1="879.5344" y1="604.5468" x2="904.4211" y2="579.6601">
			<stop  offset="0" style="stop-color:#00FFFF"/>
			<stop  offset="1" style="stop-color:#FF00FF"/>
		</linearGradient>
		<path class="st4" d="M903.7,605.3h-23.4v-26.4h23.4V605.3z"/>
		<linearGradient id="SVGID_6_" gradientUnits="userSpaceOnUse" x1="917.7899" y1="602.7901" x2="1032.8053" y2="487.7747">
			<stop  offset="0" style="stop-color:#00FFFF"/>
			<stop  offset="1" style="stop-color:#FF00FF"/>
		</linearGradient>
		<path class="st5" d="M1016.7,481.3c6.4,0,10.9,1.3,13.6,3.9c2.7,2.6,4,6.8,4,12.7v107.4h-27.7V518h3.9l-26.5,51.9h-17.2l-25-50
			h3.9v85.3h-25.4V481.3h15.4c4.6,0,7.7,0.6,9.4,1.9c1.7,1.2,3.3,3.3,4.9,6.1l30.3,56.4h-5.3l33.2-64.4H1016.7z"/>
		<linearGradient id="SVGID_7_" gradientUnits="userSpaceOnUse" x1="1045.7249" y1="593.3153" x2="1145.786" y2="493.2541">
			<stop  offset="0" style="stop-color:#00FFFF"/>
			<stop  offset="1" style="stop-color:#FF00FF"/>
		</linearGradient>
		<path class="st6" d="M1057.7,605.3V481.3l55.4-1c12.2-0.3,21.3,2.2,27.2,7.5c5.9,5.3,8.9,13.5,8.9,24.7V574
			c0,11.2-3,19.4-8.9,24.6c-5.9,5.2-15,7.7-27.2,7.6L1057.7,605.3z M1117.2,505.3h-30.6v75.9h30.6c1.8,0,2.7-0.9,2.7-2.7v-70.5
			C1120,506.3,1119,505.3,1117.2,505.3z"/>
		<linearGradient id="SVGID_8_" gradientUnits="userSpaceOnUse" x1="1153.6987" y1="588.8625" x2="1235.2474" y2="507.3139">
			<stop  offset="0" style="stop-color:#00FFFF"/>
			<stop  offset="1" style="stop-color:#FF00FF"/>
		</linearGradient>
		<path class="st7" d="M1217.9,606.4l-47.8-1.2V473.5h27.9v56.6h-0.8c0-6.9,1.6-12.4,4.8-16.4c3.2-4,8.2-6.1,14.9-6.1h4.9
			c8.8,0,15.3,1.9,19.3,5.6c4,3.7,6.1,10,6.1,18.8v48c0,9.8-2.2,16.7-6.5,20.7C1236.3,604.8,1228.7,606.7,1217.9,606.4z M1198,532.9
			v53.3l-2.9-3.1h22.1c1.8,0,2.7-0.9,2.7-2.7v-47.4c0-1.8-0.9-2.7-2.7-2.7h-16.4C1198.9,530.1,1198,531,1198,532.9z"/>
	</g>
</g>
</svg>
